<svg width="699" height="502" viewBox="0 0 699 502" fill="none" xmlns="http://www.w3.org/2000/svg">
<g filter="url(#filter0_d_37_1461)">
<path d="M393.074 162.153C378.055 164.29 362.515 170.757 351.164 180.892L347.842 179.794C361.013 164.925 351.539 176.33 337.906 174.28C349.633 172.374 354.37 166.83 359.973 164.347C373.404 158.428 375.397 154.3 393.074 162.153Z" fill="#F5A72C"/>
<path d="M505.578 275.711C507.282 281.37 505.145 289.772 504.48 295.546C496.335 288.732 492.147 279.002 486.832 270.196L505.578 275.711Z" fill="#C36928"/>
<path d="M371.036 307.702C370.689 308.597 370.747 312.668 369.39 313.217C362.631 308.915 356.738 310.416 350.095 309.896C349.257 309.839 348.882 309.723 348.997 308.799C363.931 300.224 377.882 289.887 371.065 307.702H371.036Z" fill="#FDFEFF"/>
<path d="M347.871 296.672L339.061 313.765C340.13 315.671 347.813 309.492 348.997 308.799C348.882 309.723 349.257 309.838 350.095 309.896L347.9 315.411C344.26 317.057 341.661 321.041 339.09 320.926C337.79 315.526 336.173 309.781 334.671 304.381C336.606 300.917 346.051 298.001 347.9 296.672H347.871Z" fill="#F7EA4B"/>
<path d="M371.036 320.925C364.133 319.02 362.602 320.03 362.226 319.828C359.858 318.529 355.814 314.978 356.161 312.119C353.041 313.101 350.788 314.111 347.9 315.44L350.095 309.925C356.738 310.445 362.631 308.943 369.39 313.245C370.747 312.697 370.689 308.626 371.036 307.73C373.751 310.906 371.556 317.374 371.036 320.954V320.925Z" fill="#8D5723"/>
<path d="M398.591 271.322C398.937 272.101 399.342 272.737 399.688 273.516C398.504 278.309 394.518 291.764 393.074 294.478C392.987 294.651 390.417 296.384 389.752 296.672C390.07 295.229 387.759 273.401 398.562 271.322H398.591Z" fill="#A32922"/>
<path d="M362.197 319.829C362.688 332.417 347.004 323.9 338.483 326.441C336.635 323.582 339.176 321.446 339.032 320.926C341.631 321.041 344.231 317.057 347.842 315.411C350.73 314.112 352.983 313.073 356.102 312.091C355.756 314.978 359.8 318.501 362.168 319.8L362.197 319.829Z" fill="#171312"/>
<path d="M410.722 304.381L393.074 294.449C394.547 291.764 398.504 278.309 399.689 273.487C399.746 273.632 401.451 273.025 401.884 274.036C403.155 276.981 412.6 301.205 412.918 302.707C413.322 304.555 411.964 304.555 410.722 304.353V304.381Z" fill="#171312"/>
<path d="M269.567 133.482C283.142 154.819 306.394 176.618 333.545 175.377C332.909 178.148 335.451 176.763 336.866 179.794H325.833C321.731 175.059 317.283 176.07 315.896 175.377C290.71 162.817 291.605 165.618 272.888 143.414C272.686 143.183 272.773 141.509 270.144 137.899C266.129 136.542 239.96 149.766 234.299 152.798C234.992 154.213 257.724 151.528 242.011 157.764C240.971 158.168 236.35 158.053 234.848 158.861C230.804 161.085 227.28 167.379 226.038 167.668C224.623 168.014 224.276 166.195 222.168 166.57C222.023 166.57 221.244 164.261 220.521 164.376C220.204 164.405 219.048 167.668 218.875 167.696C211.683 168.245 201.083 166.859 195.71 167.696C193.602 162.297 214.369 152.192 221.619 148.958C236.754 142.23 253.94 138.852 269.595 133.511L269.567 133.482Z" fill="#FDFEFF"/>
<path d="M347.87 179.794C345.155 182.855 342.267 187.388 341.805 187.503C337.183 188.803 338.252 182.797 336.837 179.794C335.422 176.763 332.909 178.177 333.515 175.377C333.746 175.377 332.591 175.146 337.934 174.279C351.568 176.329 361.042 164.925 347.87 179.794Z" fill="#964F22"/>
<path d="M378.747 133.482C373.866 144.252 366.674 154.617 360.002 164.348C354.398 166.831 349.661 172.374 337.934 174.28C332.591 175.146 333.746 175.377 333.515 175.377C306.364 176.619 283.112 154.819 269.537 133.482C266.764 129.151 261.392 119.306 259.601 114.744C253.824 99.8453 253.16 94.4749 252.986 78.3638C270.692 90.3749 254.69 113.675 293.251 129.094C311.476 136.37 321.961 138.044 336.259 123.579C357.315 131.634 349.95 142.982 381.491 125.773C382.3 126.149 379.123 132.645 378.747 133.482Z" fill="#171312"/>
<path d="M383.167 112.549C392.237 114.108 401.595 114.945 410.751 115.869C406.881 119.305 399.631 116.591 399.169 116.966C394.663 120.691 403.155 133.28 389.782 133.511C386.113 133.453 382.416 133.54 378.748 133.511C379.123 132.645 382.33 126.177 381.492 125.802C349.951 143.01 357.316 131.663 336.26 123.607C321.962 138.073 311.477 136.398 293.251 129.122C254.691 113.704 270.693 90.4323 252.987 78.3922C252.987 78.0457 251.167 75.476 254.085 71.7803C277.221 87.7759 254.316 98.1991 282.218 115.869C298.248 126.033 322.973 134.897 338.455 120.287C350.008 133.973 378.315 129.786 383.138 112.578L383.167 112.549Z" fill="#FDFEFF"/>
<path d="M384.264 76.1694C384.524 78.9123 383.167 78.2482 383.167 78.3637C373.953 69.9039 373 75.1011 369.938 75.0433C354.023 74.7546 297.121 74.0328 289.409 75.0433C284.21 75.7074 279.646 81.6264 278.375 78.9123C280.166 76.8912 286.116 68.9222 287.763 68.4314C291.402 67.3631 345.155 70.6835 361.648 69.5286C374.79 68.6046 375.253 58.3258 384.264 76.1405V76.1694Z" fill="#FDFEFF"/>
<path d="M354.485 17.7305C354.832 26.71 354.485 35.2564 353.388 44.1781H308.155C303.274 31.3874 293.569 16.1136 280.571 9.99251C280.658 9.93477 278.26 9.81925 280.022 7.79814C310.986 -2.07643 330.078 -6.17638 354.485 17.7305Z" fill="#FDFEFF"/>
<path d="M353.388 44.1777C353.359 44.4953 356.739 47.0939 352.839 50.7896H308.733C306.74 45.7946 308.3 44.4953 308.185 44.1777H353.417H353.388Z" fill="#6D72B5"/>
<path d="M308.156 44.1778C308.271 44.4954 306.711 45.7947 308.704 50.7897H352.81C356.71 47.094 353.33 44.4954 353.359 44.1778C354.486 35.2272 354.803 26.7096 354.457 17.7301C357.345 20.5597 365.375 29.9145 367.685 33.1772C376.813 46.0257 376.697 45.0729 380.914 60.7509C382.243 65.7171 383.745 71.0297 384.236 76.1979C375.224 58.3833 374.762 68.6621 361.62 69.586C345.098 70.741 291.345 67.4206 287.735 68.4889C286.088 68.9797 280.138 76.9487 278.347 78.9698C279.618 81.6838 284.182 75.7937 289.381 75.1008C281.322 81.2507 281.929 94.59 287.186 101.548C290.507 105.966 291.287 104.638 291.605 104.869C300.212 110.788 326.439 121.153 335.162 113.675C341.517 112.607 344.867 115.869 345.647 115.869C354.659 115.985 366.328 115.581 369.91 104.84C372.596 96.8421 371.094 83.4739 369.91 75.0719C372.971 75.1296 373.924 69.9325 383.138 78.3923C383.774 88.0648 385.709 103.367 383.138 112.578C378.315 129.786 350.008 133.973 338.455 120.287C322.973 134.897 298.248 126.062 282.218 115.869C254.316 98.1703 277.221 87.776 254.085 71.7804C250.243 63.5516 258.619 39.7314 262.894 32.08C265.089 28.1822 267.573 25.3815 270.606 22.1477C269.509 24.1111 264.165 34.13 263.992 34.8229C258.042 58.7009 277.856 16.0266 284.962 13.8612C283.835 8.5774 272.368 20.271 270.635 22.1188C274.13 15.8534 274.535 14.9295 280.571 9.99219C293.569 16.1133 303.245 31.3871 308.156 44.1778Z" fill="#171312"/>
<path d="M270.664 22.1479C272.426 20.2712 283.893 8.60648 284.991 13.8902C277.885 16.0557 258.1 58.73 264.021 34.8521C264.194 34.1591 269.538 24.1402 270.635 22.1768L270.664 22.1479Z" fill="#F8CE63"/>
<path d="M280.022 30.9546L281.669 32.6004C270.346 45.0735 268.238 42.4172 280.022 30.9546Z" fill="#AB2175"/>
<path d="M312.575 81.6841C315.636 82.6947 317.947 82.4925 319.189 82.7812C318.322 94.879 323.319 87.8052 326.352 88.296C337.877 90.2016 349.142 94.1283 361.1 92.7136C361.302 93.984 361.157 95.7741 361.1 97.1311C360.406 111.914 347.726 112.982 346.773 113.675C334.093 100.567 307.029 92.165 291.634 104.869C291.316 104.667 290.536 105.966 287.214 101.549C294.435 93.8396 297.526 81.0489 298.797 80.5869C303.852 81.6841 318.236 88.527 312.575 81.6841Z" fill="#1DB24B"/>
<path d="M369.91 75.0434C371.094 83.4454 372.596 96.8136 369.91 104.811C367.108 97.2178 367.541 107.294 366.039 107.006C364.566 106.717 365.837 95.8319 361.071 97.0734C361.129 95.7164 361.273 93.9552 361.071 92.6559C360.927 91.6742 359.425 90.8946 359.973 88.2383C365.49 87.4876 371.671 84.7447 368.234 78.306C355.15 79.3165 317.832 77.5264 313.095 78.306C306.451 79.4032 307.376 79.9229 312.546 81.6264C318.207 88.4693 303.823 81.6264 298.768 80.5292C297.497 80.9623 294.407 93.7531 287.186 101.491C281.929 94.5038 281.351 81.1644 289.381 75.0434C297.064 74.0328 353.994 74.7546 369.91 75.0434Z" fill="#0A793D"/>
<path d="M346.773 113.647C346.773 113.647 345.791 115.379 345.676 115.841C344.896 115.841 341.545 112.578 335.191 113.647C326.468 121.125 300.212 110.759 291.634 104.84C307.029 92.1362 334.093 100.538 346.773 113.647Z" fill="#62BF82"/>
<path d="M369.91 104.84C366.328 115.581 354.659 115.985 345.647 115.87C345.763 115.408 346.658 113.733 346.745 113.675C347.698 112.982 360.407 111.914 361.071 97.1312C365.837 95.8607 364.566 106.775 366.039 107.063C367.512 107.352 367.108 97.2755 369.91 104.869V104.84Z" fill="#65BD55"/>
<path d="M360.002 88.2959C354.688 89.0177 326.612 84.6001 319.189 82.7811C317.947 82.4924 315.636 82.6945 312.575 81.684C307.405 79.9805 306.48 79.4607 313.124 78.3635C317.861 77.584 355.179 79.3741 368.263 78.3635C371.7 84.8022 365.519 87.5452 360.002 88.2959Z" fill="#0A793D"/>
<path d="M360.002 88.296C359.454 90.9523 360.956 91.703 361.1 92.7136C349.142 94.1572 337.877 90.2016 326.353 88.296C323.291 87.8052 318.323 94.879 319.189 82.7812C326.612 84.6002 354.688 89.0178 360.002 88.296Z" fill="#65BD55"/>
<path d="M272.859 143.414C267.573 156.581 270.981 155.195 279.473 165.473C273.494 169.256 267.371 164.434 261.825 167.668C260.583 162.326 264.454 165.445 265.147 163.799C265.378 163.221 257.377 154.819 255.211 159.381C254.315 161.258 258.215 162.817 256.308 168.187C255.471 170.497 253.824 168.39 251.889 169.833C251.427 170.18 245.708 172.345 244.177 174.799C239.758 181.816 248.279 178.409 238.66 183.057C236.205 184.241 233.114 183.317 233.143 185.8C233.143 186.522 243.339 192.614 245.275 194.058C251.225 198.562 257.406 202.806 262.923 207.83C233.721 201.796 238.833 203.47 262.923 212.248C237.389 229.831 264.714 211.15 264.02 226.02C263.847 226.107 264.454 226.482 260.699 228.214C255.673 222.151 257.839 226.684 254.084 227.117C255.24 223.941 230.284 216.146 225.402 217.734C242.213 221.833 218.499 220.534 215.466 223.797C216.564 205.049 217.671 186.31 218.788 167.581C218.961 167.581 220.117 164.318 220.434 164.261C221.156 164.174 221.965 166.484 222.081 166.455C219.452 182.22 240.624 163.481 241.924 157.649C257.608 151.441 234.905 154.097 234.212 152.683C239.873 149.68 266.042 136.427 270.057 137.784C272.686 141.393 272.628 143.068 272.801 143.299L272.859 143.414Z" fill="#FEC76E"/>
<path d="M307.057 230.524L282.795 260.292C274.823 261.504 265.233 261.071 260.727 269.098C252.813 280.763 256.337 297.538 250.791 295.546C250.243 294.824 241.693 290.695 235.338 285.613C238.285 282.842 233.721 278.106 236.436 266.875L244.148 264.68C246.719 272.736 246.517 262.804 247.47 260.263C247.499 260.147 247.759 259.974 248.567 258.069C253.391 260.119 263.847 258.126 264.02 254.748C272.05 252.698 273.003 253.882 273.408 253.651C277.711 250.966 275.892 244.094 279.473 247.039C279.127 251.832 281.986 245.798 283.892 242.073C285.163 239.59 293.424 219.09 293.829 217.271C298.854 221.053 302.898 225.875 307.057 230.495V230.524Z" fill="#A32922"/>
<path d="M254.113 227.204C257.868 226.771 255.702 222.266 260.728 228.301C247.094 234.653 238.14 231.621 230.948 242.622C230.082 243.95 229.88 243.661 229.851 243.719C227.02 238.204 221.85 252.93 223.236 265.229L215.524 260.263C213.531 248.512 214.715 236.761 214.427 224.98C224.536 226.28 236.378 224.778 238.14 229.398C242.704 227.579 249.232 227.752 254.142 227.204H254.113Z" fill="#DB9531"/>
<path d="M246.401 253.68C246.141 256.799 246.054 260.552 247.499 260.292C246.574 262.833 246.776 272.737 244.177 264.71C244.119 264.537 246.545 264.71 244.726 261.389C240.595 263.844 238.082 260.494 237.014 261.389C235.772 262.458 236.811 265.432 236.465 266.904C233.75 278.136 238.313 282.871 235.367 285.643C233.028 283.766 231.035 282.12 228.753 280.128C228.84 274.151 227.742 268.463 227.655 262.487C233.288 259.888 233.865 256.192 234.27 255.875C236.32 254.287 236.898 250.071 246.401 253.68Z" fill="#CB7929"/>
<path d="M229.851 243.748C229.649 244.152 230.053 245.365 229.851 245.943C228.84 249.09 228.002 250.071 227.656 253.652C227.396 256.423 227.598 259.657 227.656 262.458C227.771 268.435 228.84 274.123 228.753 280.099C221.475 273.747 218.615 278.367 215.524 260.264L223.236 265.23C221.85 252.93 227.02 238.205 229.851 243.719V243.748Z" fill="#A32922"/>
<path d="M254.113 227.204C249.203 227.752 242.675 227.608 238.112 229.398C236.35 224.778 224.507 226.28 214.398 224.98C214.282 223.652 215.438 223.941 215.495 223.883C218.528 220.621 242.242 221.92 225.431 217.82C230.313 216.232 255.269 224.028 254.113 227.204Z" fill="#F7EA4B"/>
<path d="M341.256 254.777C338.483 255.557 343.191 264.132 344.578 265.807C342.96 266.298 342.267 267.915 341.256 269.127C340.129 265.893 335.739 259.022 333.544 257.001C332.648 256.192 332.042 249.984 323.608 255.903C339.119 234.22 334.584 231.506 312.574 255.903C307.664 252.987 300.327 252.814 299.345 248.194C303.505 243.604 307.231 238.464 311.476 233.873C317.571 227.29 322.857 219.957 329.673 214.038C331.464 230.062 331.406 241.351 341.256 254.835V254.777Z" fill="#CB7929"/>
<path d="M279.473 165.473C287.185 174.828 296.775 183.288 307.057 189.726C305.382 194 303.533 195.617 303.736 200.756C301.021 203.47 298.074 205.231 294.926 207.368C292.846 208.754 289.409 210.313 287.214 211.785C283.055 210.371 287.301 204.394 289.409 202.979C291.662 201.449 299.028 201.68 299.345 199.11C282.737 180.545 260.612 163.77 275.083 185.338L250.271 188.658C246.401 186.868 247.73 185.424 247.527 185.338V184.241L269.595 178.177C267.862 174.251 262.778 171.623 261.883 167.696C267.428 164.463 273.552 169.284 279.531 165.502L279.473 165.473Z" fill="#C36928"/>
<path d="M294.926 207.368C293.164 211.468 294.291 215.164 293.829 217.3C291.2 217.041 268.237 235.635 256.337 237.136C249.001 239.128 240.393 237.021 230.977 242.651C238.169 231.65 247.123 234.682 260.756 228.33C264.483 226.598 263.876 226.222 264.078 226.136C274.476 221.285 278.26 217.849 287.243 211.815C289.438 210.342 292.904 208.812 294.955 207.397L294.926 207.368Z" fill="#F7EA4B"/>
<path d="M352.261 265.807C356.969 268.405 371.931 270.542 372.653 271.321C373.837 272.65 370.227 274.238 369.909 274.642C369.967 272.967 368.523 273.776 367.714 273.545C357.922 270.802 338.195 285.007 327.999 286.768V285.671C332.418 280.157 336.664 274.555 341.227 269.127C342.238 267.914 342.932 266.297 344.549 265.807C347.264 269.127 349.662 270.022 352.261 265.807Z" fill="#DB9531"/>
<path d="M355.583 288.963C352.839 291.388 351.048 294.362 347.871 296.672C346.022 298.029 336.577 300.945 334.642 304.381C333.284 299.473 331.234 295.2 330.223 290.06C335.364 286.826 341.227 284.719 346.773 282.351L355.583 288.963Z" fill="#C36928"/>
<path d="M311.477 233.815C307.231 238.406 303.505 243.546 299.345 248.137C296.515 251.284 289.843 254.546 290.536 259.166C287.618 259.31 285.568 259.859 282.824 260.263L307.086 230.495C308.559 232.112 309.022 234.191 311.506 233.815H311.477Z" fill="#721011"/>
<path d="M369.909 274.613C366.385 278.684 359.626 285.383 355.583 288.934L346.773 282.322C353.734 279.348 360.724 276.432 367.743 273.516C368.551 273.747 369.996 272.939 369.938 274.613H369.909Z" fill="#C36928"/>
<path d="M341.256 269.098C336.693 274.498 332.447 280.128 328.028 285.643C325.341 284.372 322.828 277.472 321.413 275.71C323.493 273.978 324.504 271.322 325.832 269.098C328.287 264.998 330.396 260.61 333.544 256.972C335.768 258.993 340.159 265.865 341.256 269.098Z" fill="#721011"/>
<path d="M367.714 273.516C360.724 276.432 353.734 279.348 346.744 282.322C341.199 284.69 335.335 286.798 330.194 290.031C330.165 289.829 328.894 289.598 327.999 286.711C338.195 284.95 357.922 270.715 367.714 273.487V273.516Z" fill="#931A1D"/>
<path d="M325.804 269.098C324.475 271.321 323.464 273.978 321.384 275.71C320.864 275.075 317.716 273.169 316.965 272.39C315.781 271.148 313.586 267.712 312.546 266.875C313.875 267.135 316.243 265.489 316.965 264.681L325.775 269.098H325.804Z" fill="#A32922"/>
<path d="M283.893 195.241C285.741 197.782 287.157 200.727 289.41 202.95C287.301 204.393 283.055 210.37 287.214 211.756C278.231 217.791 274.448 221.226 264.049 226.077C264.743 211.179 237.389 229.859 262.952 212.305C238.863 203.527 233.75 201.882 262.952 207.887C257.435 202.863 251.254 198.619 245.304 194.115C252.871 190.159 274.708 190.881 283.922 195.212L283.893 195.241Z" fill="#721011"/>
<path d="M315.867 175.377V176.474C312.256 177.542 308.675 185.598 307.057 189.698C296.775 183.259 287.214 174.799 279.473 165.444C270.981 155.165 267.573 156.551 272.859 143.385C291.575 165.589 290.709 162.817 315.867 175.348V175.377Z" fill="#721011"/>
<path d="M261.826 167.668C262.75 171.594 267.805 174.222 269.538 178.149L247.47 184.212C247.846 176.243 253.911 177.542 251.889 169.891C253.796 168.447 255.471 170.555 256.309 168.245C258.215 162.875 254.316 161.316 255.211 159.439C257.349 154.877 265.378 163.279 265.147 163.856C264.483 165.502 260.584 162.384 261.826 167.725V167.668Z" fill="#DB9531"/>
<path d="M238.66 183.115C241.029 186.608 245.65 184.761 247.47 185.309C247.672 185.367 246.372 186.839 250.214 188.629L275.025 185.309C275.401 185.858 279.069 188.658 283.835 195.241C274.65 190.91 252.785 190.189 245.217 194.144C243.282 192.672 233.086 186.608 233.086 185.887C233.057 183.403 236.147 184.327 238.603 183.144L238.66 183.115Z" fill="#A32922"/>
<path d="M241.982 157.735C240.682 163.568 219.51 182.335 222.139 166.542C224.247 166.166 224.565 167.985 226.009 167.639C227.251 167.35 230.775 161.056 234.819 158.832C236.321 157.995 240.942 158.14 241.982 157.735Z" fill="#F7EA4B"/>
<path d="M251.918 169.891C253.94 177.542 247.874 176.272 247.499 184.212V185.309C245.679 184.731 241.057 186.608 238.689 183.114C248.307 178.466 239.787 181.844 244.206 174.857C245.737 172.403 251.456 170.237 251.918 169.891Z" fill="#F5A72C"/>
<path d="M279.473 247.069C279.964 244.528 281.38 241.41 280.571 238.811C280.08 237.252 273.205 240.774 265.118 251.486C261.074 251.948 265.436 249.667 263.472 245.971C252.207 253.478 254.922 243.344 248.567 258.098C247.73 260.004 247.499 260.177 247.47 260.292C245.997 260.552 246.112 256.799 246.372 253.681C247.094 244.961 248.336 249.725 252.987 243.748C254.229 242.16 253.94 239.562 256.308 237.136C268.209 235.635 291.171 217.041 293.8 217.301C293.395 219.12 285.135 239.619 283.864 242.102C281.957 245.827 279.098 251.862 279.444 247.069H279.473Z" fill="#F5A72C"/>
<path d="M265.147 251.457C265.147 251.457 265.32 253.102 264.049 254.777C263.905 258.155 253.449 260.147 248.596 258.097C254.922 243.343 252.207 253.478 263.5 245.971C265.464 249.666 261.132 251.947 265.147 251.485V251.457Z" fill="#B84F30"/>
<path d="M279.473 247.068C275.892 244.123 277.712 250.995 273.408 253.68C273.003 253.94 272.05 252.756 264.021 254.777C265.291 253.103 265.031 251.601 265.118 251.457C273.177 240.745 280.08 237.194 280.571 238.782C281.38 241.38 279.936 244.528 279.473 247.039V247.068Z" fill="#B84F30"/>
<path d="M244.177 264.709L236.465 266.904C236.812 265.431 235.772 262.457 237.014 261.389C238.083 260.494 240.625 263.843 244.726 261.389C246.517 264.709 244.12 264.536 244.177 264.709Z" fill="#964F22"/>
<path d="M256.308 237.136C253.94 239.561 254.229 242.16 252.987 243.748C241.895 242.333 230.399 249.955 229.822 245.942C230.024 245.365 229.619 244.152 229.822 243.748C229.85 243.69 230.053 243.979 230.919 242.65C240.335 237.02 248.943 239.128 256.279 237.136H256.308Z" fill="#FEC76E"/>
<path d="M253.015 243.748C248.365 249.724 247.123 244.96 246.401 253.68C236.898 250.1 236.32 254.286 234.27 255.874L227.655 253.68C228.002 250.071 228.84 249.118 229.85 245.971C230.428 249.955 241.924 242.362 253.015 243.776V243.748Z" fill="#FEC76E"/>
<path d="M234.27 255.875C233.866 256.192 233.288 259.888 227.656 262.486C227.598 259.657 227.396 256.423 227.656 253.68L234.27 255.875Z" fill="#DB9531"/>
<path d="M323.609 255.875C322.713 257.145 317.341 264.277 316.994 264.681C316.301 265.489 313.904 267.135 312.575 266.875C311.477 266.009 307.376 262.631 307.058 262.458C308.762 260.206 310.698 257.925 312.575 255.846C334.585 231.448 339.119 234.162 323.609 255.846V255.875Z" fill="#931A1D"/>
<path d="M312.575 255.875C310.697 257.954 308.762 260.235 307.058 262.487C296.486 256.394 297.122 258.849 290.507 259.166C289.843 254.546 296.486 251.284 299.317 248.137C300.299 252.785 307.636 252.959 312.546 255.846L312.575 255.875Z" fill="#A32922"/>
<path d="M333.515 256.972C330.367 260.61 328.258 264.999 325.803 269.099L316.994 264.681C317.369 264.277 322.713 257.116 323.608 255.875C332.013 249.956 332.649 256.163 333.544 256.972H333.515Z" fill="#A32922"/>
<path d="M289.41 202.951C287.157 200.727 285.741 197.782 283.893 195.242C279.098 188.659 275.43 185.858 275.083 185.309C260.612 163.77 282.737 180.516 299.346 199.082C299.057 201.651 291.663 201.42 289.41 202.951Z" fill="#721011"/>
<path d="M336.837 179.795C338.252 182.827 337.183 188.832 341.805 187.504C342.267 187.36 345.155 182.856 347.871 179.795L351.192 180.892C347.871 183.866 342.065 191.286 339.061 195.213C338.859 187.215 332.446 190.536 329.674 188.601C328.836 188.024 328.027 184.27 326.93 183.087C325.688 181.758 325.948 179.91 325.832 179.766H336.866L336.837 179.795Z" fill="#DB5DA2"/>
<path d="M309.253 195.241C308.069 201.016 308.386 204.048 308.155 209.562C306.393 215.453 303.823 202.575 303.736 200.756C303.505 195.617 305.353 194 307.058 189.727C308.675 185.627 312.257 177.571 315.867 176.503C313.643 183.432 310.755 187.85 309.253 195.241Z" fill="#F8CE63"/>
<path d="M325.803 179.794C325.803 179.794 325.659 181.787 326.901 183.115C319.218 183.779 316.589 194.491 309.253 195.241C310.755 187.85 313.643 183.404 315.867 176.503V175.406C317.254 176.099 321.702 175.088 325.803 179.823V179.794Z" fill="#BF3E6F"/>
<path d="M339.032 195.241C331.06 205.693 329.818 218.195 324.128 207.368L308.675 221.689C304.602 221.227 308.039 211.67 308.126 209.562C308.357 204.048 308.039 201.016 309.224 195.241C316.56 194.491 319.189 183.779 326.872 183.115C327.969 184.27 328.807 188.052 329.616 188.629C332.389 190.564 338.772 187.272 339.003 195.241H339.032Z" fill="#631245"/>
<path d="M331.869 196.339C337.762 194.837 331.147 200.93 328.548 205.145C325.37 204.365 330.338 196.714 331.869 196.339Z" fill="#F8CE63"/>
<path d="M195.652 167.668C201.025 166.831 211.625 168.217 218.817 167.668C217.72 186.417 216.612 205.155 215.495 223.884C215.495 223.884 214.282 223.653 214.398 224.981C214.716 236.761 213.502 248.513 215.495 260.264C218.586 278.367 221.446 273.748 228.724 280.1C231.006 282.092 232.999 283.738 235.339 285.614C241.693 290.696 250.214 294.796 250.792 295.547C254.807 300.744 253.102 312.668 261.825 320.897C261.941 321.013 261.768 322.197 261.825 323.092L257.406 324.189C254.085 325.979 252.207 329.328 249.694 331.898C231.122 347.085 235.454 341.397 218.817 327.48C217.864 326.672 216.362 324.737 214.398 323.063C211.856 320.897 209.112 318.732 206.686 316.451C204.346 314.256 201.169 313.044 198.974 310.936C198.252 310.243 197.53 309.464 196.779 308.742C193.024 305.104 185.023 291.1 178.033 286.683C177.86 286.567 176.358 283.853 175.289 283.362C171.072 282.265 123.962 284.46 116.279 285.557C113.997 285.874 111.889 284.893 109.664 286.654C100.739 278.858 83.0623 260.466 72.173 260.206C69.8623 259.6 72.173 259.167 72.173 259.109C82.8312 248.715 85.7196 234.914 101.952 231.535C112.264 229.399 122.98 230.871 133.378 230.438C138.029 231.94 138.144 244.557 141.09 245.885C155.648 243.749 169.425 242.594 184.099 243.691C187.507 241.266 173.874 203.788 183.55 179.737C184.214 178.091 190.597 168.073 191.811 167.611C193.081 167.495 194.439 167.813 195.681 167.611L195.652 167.668Z" fill="#171312"/>
<path d="M487.929 231.622C490.5 235.231 492.608 235.173 492.348 236.588L481.315 245.394C484.087 249.552 504.826 231.42 481.315 261.39C474.267 248.917 468.144 236.011 461.471 223.364C461.414 223.249 462.944 222.383 462.569 221.718C465.515 219.178 468.866 212.479 471.379 210.689C473.112 219.726 480.91 221.718 487.929 231.651V231.622Z" fill="#171312"/>
<path d="M487.929 231.622C480.911 221.69 473.112 219.697 471.379 210.66C471.523 210.545 471.985 208.177 474.123 208.466C477.185 211.584 497.432 223.682 497.837 225.559C498.674 229.37 495.266 236.068 487.901 231.622H487.929Z" fill="#DB5DA2"/>
<path d="M410.722 304.382C420.658 311.571 432.096 335.19 440.502 346.277C432.616 347.374 424.153 348.125 416.239 348.471C415.864 348.471 415.517 348.471 415.142 348.471C407.834 339.867 399.255 331.754 389.781 326.412C388.77 325.835 384.611 325.488 382.069 323.669C384.409 314.661 387.788 305.739 389.781 296.644C390.417 296.326 392.988 294.623 393.103 294.45L410.751 304.382H410.722Z" fill="#FDFEFF"/>
<path d="M389.782 326.441C399.255 331.782 407.834 339.896 415.142 348.5C410.116 348.673 404.426 350.088 399.14 349.597C397.378 349.424 391.428 341.657 393.074 352.917C388.106 350.492 368.581 333.168 362.197 327.567C370.545 327.567 370.083 325.373 371.007 325.373C372.047 325.373 375.888 331.032 389.753 326.47L389.782 326.441Z" fill="#494A44"/>
<path d="M378.748 225.01C380.395 229.023 381.463 233.152 383.168 237.137L367.715 250.909C402.231 252.035 386.518 269.243 362.198 253.652C369.996 253.623 361.505 248.079 361.1 246.491C358.732 237.339 360.176 231.824 360.003 231.044C359.772 230.091 357.836 230.611 357.807 230.496C357.114 228.532 355.208 226.627 356.161 226.078C365.837 229.63 369.563 228.099 378.777 224.981L378.748 225.01Z" fill="#F5A72C"/>
<path d="M405.206 174.28V187.504C403.82 189.958 402.491 192.239 403.011 195.213C400.556 195.56 397.754 194.896 395.299 195.213C397.725 188.37 390.764 187.331 385.363 187.504L388.684 176.475C394.057 174.944 399.689 174.684 405.235 174.28H405.206Z" fill="#F5A72C"/>
<path d="M376.553 218.398C360.176 225.299 358.588 215.164 368.841 204.077C371.99 208.552 374.416 213.403 376.553 218.398Z" fill="#171312"/>
<path d="M455.955 209.563C455.291 208.726 450.438 204.943 448.243 202.951C454.396 189.438 454.424 188.543 444.922 200.757C442.264 198.331 439.867 196.426 438.307 193.048C441.6 189.929 445.239 187.129 448.243 183.664C421.814 166.138 422.248 190.507 414.593 194.145C410.579 196.05 406.968 194.722 403.011 195.242C402.491 192.239 403.849 189.958 405.206 187.533C407.777 182.971 412.543 178.582 416.24 174.858C412.831 170.96 405.755 174.28 405.206 174.309C399.66 174.713 394.028 174.973 388.656 176.503C376.033 180.112 355.121 193.221 348.94 205.723C351.135 209.332 370.285 187.966 385.334 187.533C390.735 187.36 397.667 188.399 395.27 195.242C392.006 195.675 388.424 195.819 385.334 196.339C382.099 196.916 377.304 194.838 368.783 204.048C358.558 215.135 360.118 225.299 376.495 218.369C380.106 226.771 378.575 224.663 378.691 224.981C369.477 228.128 365.751 229.63 356.074 226.078C355.121 226.627 357.028 228.532 357.721 230.496C336.116 231.997 348.622 233.441 362.14 253.652C386.46 269.243 402.173 252.006 367.657 250.909L383.11 237.137C387.991 248.599 393.508 259.888 398.563 271.322C387.731 273.401 390.042 295.229 389.753 296.673C387.76 305.768 384.381 314.661 382.041 323.698C384.612 325.517 388.742 325.892 389.753 326.441C375.889 331.003 372.047 325.315 371.007 325.344C371.152 323.9 370.805 322.341 371.007 320.926C371.527 317.346 373.723 310.878 371.007 307.702C377.853 289.916 363.873 300.224 348.94 308.799C347.756 309.492 340.073 315.642 339.004 313.765L347.814 296.673C350.991 294.363 352.782 291.389 355.526 288.964C359.569 285.383 366.357 278.685 369.852 274.643C370.17 274.267 373.78 272.679 372.596 271.322C371.874 270.543 356.883 268.406 352.204 265.807C349.749 264.45 343.019 257.319 341.17 254.778C331.321 241.323 331.379 230.005 329.588 213.98C322.742 219.899 317.485 227.233 311.391 233.816C308.907 234.192 308.445 232.142 306.972 230.496C302.783 225.847 298.768 221.054 293.743 217.272C294.205 215.135 293.078 211.44 294.84 207.34C297.989 205.203 300.935 203.442 303.65 200.728C303.737 202.547 306.307 215.453 308.069 209.534C307.982 211.642 304.545 221.199 308.618 221.661L324.071 207.34C329.761 218.167 331.003 205.665 338.975 195.213C341.979 191.257 347.785 183.837 351.106 180.892C362.487 170.758 378.026 164.29 393.017 162.153C425.54 157.505 483.395 164.146 455.898 209.563H455.955Z" fill="#171312"/>
<path d="M352.261 265.807C349.662 270.023 347.264 269.128 344.549 265.807C343.192 264.162 338.455 255.557 341.228 254.778C343.076 257.319 349.777 264.45 352.261 265.807Z" fill="#F5A72C"/>
<path d="M385.362 187.504C370.314 187.966 351.163 209.303 348.968 205.694C355.121 193.192 376.061 180.084 388.684 176.475L385.362 187.504Z" fill="#C36928"/>
<path d="M357.778 230.525C357.778 230.525 359.742 230.12 359.973 231.073C360.147 231.853 358.703 237.368 361.071 246.52C361.475 248.108 369.967 253.652 362.169 253.681C348.68 233.499 336.144 232.026 357.749 230.525H357.778Z" fill="#CB7929"/>
<path d="M405.206 187.504V174.28C405.754 174.251 412.831 170.931 416.239 174.829C412.542 178.582 407.776 182.942 405.206 187.504Z" fill="#FAF397"/>
<path d="M448.243 202.951C448.099 202.806 448.041 203.586 444.921 200.756C454.424 188.572 454.366 189.438 448.243 202.951Z" fill="#F8CE63"/>
<path d="M347.322 216.175C348.189 215.799 353.388 216.117 353.388 216.723C353.388 217.936 344.809 217.272 347.322 216.175Z" fill="#611927"/>
<path d="M438.307 193.019C439.867 196.426 442.264 198.303 444.921 200.728C448.041 203.558 448.07 202.807 448.243 202.922C450.438 204.915 455.291 208.697 455.955 209.534C457.746 211.786 460.923 218.6 462.57 221.661C462.916 222.325 461.385 223.191 461.472 223.307C468.173 235.982 474.296 248.859 481.315 261.332C483.048 264.393 485.041 267.165 486.832 270.139C492.147 278.945 496.335 288.675 504.48 295.489C504.423 295.865 506.502 294.854 503.383 303.198C501.707 301.755 499.801 300.571 498.415 298.781C496.306 299.849 513.059 337.99 514.416 342.87C511.066 347.489 504.047 343.361 498.963 346.19C498.935 346.132 498.559 346.594 497.866 345.093C491.107 330.714 468.549 268.233 457.053 240.89C450.467 225.241 442.755 209.708 434.985 194.578C434.552 191.864 437.903 193.308 438.307 192.932V193.019Z" fill="#631245"/>
<path d="M438.307 193.019C437.903 193.394 434.552 191.95 434.986 194.664C442.755 209.794 450.467 225.328 457.053 240.977C468.549 268.319 491.107 330.772 497.866 345.179C485.003 345.911 472.13 346.642 459.248 347.374C459.248 347.374 458.873 347.807 458.151 346.277C434.466 296.009 414.247 243.951 385.363 196.339C388.453 195.79 392.035 195.675 395.299 195.242C397.754 194.924 400.556 195.588 403.011 195.242C406.968 194.693 410.579 196.05 414.593 194.145C422.219 190.507 421.786 166.138 448.243 183.664C445.239 187.129 441.6 189.929 438.307 193.048V193.019Z" fill="#FDFEFF"/>
<path d="M385.363 196.339C414.247 243.95 434.465 296.037 458.15 346.276L441.6 347.374C440.82 346.392 440.531 346.334 440.502 346.276C432.097 335.189 420.659 311.571 410.723 304.382C411.965 304.584 413.322 304.555 412.918 302.736C412.6 301.234 403.184 277.01 401.884 274.065C401.451 273.054 399.747 273.661 399.689 273.516C399.342 272.737 398.938 272.102 398.591 271.322C393.566 259.888 388.02 248.599 383.139 237.136C381.434 233.152 380.366 228.994 378.719 225.01C378.575 224.692 380.135 226.8 376.524 218.398C374.358 213.374 371.96 208.523 368.812 204.077C377.333 194.837 382.128 196.916 385.363 196.368V196.339Z" fill="#44256E"/>
<path d="M459.277 347.374C462.743 354.65 468.809 360.597 454.309 359.5C448.186 359.038 446.366 353.495 441.629 347.374L458.179 346.276C458.902 347.836 459.248 347.316 459.277 347.374Z" fill="#2B1C32"/>
<path d="M515.514 345.179C517.161 352.628 519.645 356.064 509.449 356.209C499.859 356.353 502.603 353.033 498.964 346.276C504.047 343.447 511.066 347.576 514.417 342.956C514.706 343.938 515.312 344.198 515.514 345.15V345.179Z" fill="#2B1C32"/>
<path d="M550.81 320.926C551.272 327.913 556.009 340.098 556.327 345.179L534.259 344.082C532.035 339.347 526.056 324.073 525.45 323.12C531.66 322.427 538.014 321.85 544.195 320.926C550.521 319.973 550.492 320.984 550.81 320.926Z" fill="#672872"/>
<path d="M556.327 345.179C556.789 353.062 555.056 350.838 537.032 352.888C534.433 351.012 534.75 346.248 534.288 345.179C534.144 344.862 534.433 344.371 534.288 344.082L556.356 345.179H556.327Z" fill="#2B1C32"/>
<path d="M555.229 242.652C564.356 253.277 568.573 266.414 569.555 267.454C570.566 268.551 584.228 274.297 593.818 284.547C592.518 290.437 589.225 295.461 587.203 301.091C584.806 307.703 581.427 305.768 588.301 313.217C577.585 314.863 566.985 316.942 556.326 318.732C550.174 319.772 551.098 320.898 550.81 320.927C550.492 320.984 550.521 319.974 544.195 320.927C537.783 296.269 525.796 273.171 517.737 249.264C529.695 243.749 542.491 246.521 555.229 242.652Z" fill="url(#paint0_linear_37_1461)"/>
<path d="M515.514 239.332C516.698 243.201 517.16 247.618 517.709 249.264C525.796 273.171 537.754 296.269 544.167 320.927C537.985 321.851 531.631 322.428 525.421 323.121C524.583 321.879 506.704 306.144 503.353 303.285C506.473 294.912 504.422 295.951 504.451 295.576C505.115 289.802 507.253 281.4 505.549 275.74C504.162 271.121 497.403 272.536 496.739 269.677C496.306 267.858 510.892 238.956 513.289 236.04C514.474 236.502 515.167 238.292 515.485 239.36L515.514 239.332Z" fill="#171312"/>
<path d="M555.229 242.652C542.491 246.521 529.696 243.749 517.738 249.264C517.189 247.618 516.727 243.201 515.542 239.332C524.237 236.242 541.798 240.977 546.42 233.817C549.972 235.953 552.601 239.534 555.229 242.623V242.652Z" fill="#DB5DA2"/>
<path d="M546.391 233.816C541.77 240.977 524.208 236.242 515.514 239.331C515.196 238.292 514.474 236.502 513.319 236.011C522.677 224.692 535.097 226.973 546.42 233.816H546.391Z" fill="#D279B1"/>
<path d="M647.86 287.838C650.691 289.744 667.097 304.295 667.703 305.479C669.119 308.222 668.685 308.915 666.606 310.994C654.243 323.294 649.564 305.393 645.087 304.382C644.192 304.18 630.443 306.201 626.89 306.576C616.55 307.674 606.267 310.503 596.013 312.091C594.309 309.955 597.804 304.931 599.335 303.285C600.548 301.957 605.429 299.849 607.047 298.867C611.611 300.138 620.622 298.434 618.081 293.353C625.07 295.027 633.187 287.925 638.473 292.255L647.86 287.838Z" fill="#631245"/>
<path d="M647.86 287.838L638.473 292.255C633.187 287.924 625.042 295.056 618.081 293.352C613.777 293.93 609.358 297.481 607.047 298.867C605.429 299.849 600.519 301.957 599.335 303.285C599.046 296.124 592.374 306.288 587.204 301.09C589.254 295.46 592.518 290.465 593.818 284.546C617.301 281.63 626.919 273.719 647.86 287.867V287.838Z" fill="#AB2175"/>
<path d="M599.335 303.284C597.833 304.93 594.338 309.983 596.013 312.091C593.471 312.495 590.872 312.784 588.301 313.188C581.427 305.739 584.806 307.673 587.203 301.061C592.374 306.258 599.046 296.124 599.335 303.256V303.284Z" fill="#631245"/>
<path d="M618.081 293.353C620.622 298.434 611.639 300.138 607.047 298.867C609.358 297.481 613.748 293.93 618.081 293.353Z" fill="#672872"/>
<path d="M321.384 275.711C322.8 277.443 325.313 284.373 327.999 285.643V286.741C328.923 289.628 330.165 289.859 330.194 290.061C331.176 295.2 333.256 299.473 334.613 304.382C336.086 309.781 337.704 315.527 339.032 320.926C339.148 321.446 336.635 323.582 338.484 326.441C347.004 323.9 362.688 332.389 362.197 319.829C362.573 320.031 364.104 319.021 371.007 320.926C370.805 322.341 371.151 323.9 371.007 325.344C370.083 325.344 370.516 327.567 362.197 327.538C359.309 327.538 360.118 328.635 360.002 328.635C326.237 328.26 292.356 323.871 258.533 324.218H257.435L261.854 323.12L288.312 322.572C289.843 320.695 278.925 298.116 277.278 294.45C275.372 290.176 273.87 285.297 271.762 281.226C281.264 283.305 275.545 278.569 276.73 277.905C279.358 276.462 292.442 279.118 293.28 279.003C300.155 278.136 304.776 274.7 305.411 274.585C311.997 273.343 317.109 278.136 316.994 272.391C317.716 273.17 320.893 275.076 321.413 275.711H321.384Z" fill="url(#paint1_linear_37_1461)"/>
<path d="M271.761 281.226C273.87 285.297 275.372 290.205 277.278 294.45C258.735 294.594 270.115 320.089 261.825 320.897C253.102 312.64 254.806 300.744 250.792 295.547C256.337 297.51 252.813 280.764 260.728 269.099C265.551 267.28 269.277 276.433 271.761 281.226Z" fill="#631245"/>
<path d="M277.279 294.479C278.925 298.145 289.843 320.724 288.312 322.601L261.854 323.149C261.797 322.254 261.97 321.042 261.854 320.955C270.144 320.147 258.764 294.652 277.307 294.507L277.279 294.479Z" fill="#171312"/>
<path d="M307.058 262.488C307.376 262.661 311.477 266.039 312.575 266.905C313.615 267.742 315.81 271.178 316.994 272.42C317.11 278.194 311.997 273.402 305.412 274.614C304.776 274.73 300.155 278.166 293.28 279.032C292.472 279.147 279.358 276.491 276.73 277.935C275.546 278.57 281.265 283.334 271.762 281.255C269.278 276.462 265.552 267.309 260.728 269.128C265.234 261.073 274.823 261.535 282.795 260.322C285.539 259.889 287.59 259.369 290.507 259.225C297.122 258.907 296.486 256.424 307.058 262.545V262.488Z" fill="#DB5DA2"/>
<path d="M218.817 327.538C235.455 341.426 231.122 347.143 249.694 331.956C246.286 335.449 242.964 339.289 239.758 342.985C233.635 341.975 227.194 341.801 221.013 340.791C202.642 337.73 183.637 335.651 165.873 329.761C162.089 328.52 158.479 326.99 154.839 325.344C176.156 326.075 197.482 326.807 218.817 327.538Z" fill="#631245"/>
<path d="M206.686 316.508C202.556 320.204 180.228 315.44 184.07 322.023C184.85 323.322 210.268 323.063 214.398 323.12C216.362 324.795 217.864 326.729 218.817 327.538C197.501 326.806 176.175 326.075 154.839 325.343C153.337 324.679 151.893 323.9 150.42 323.149C160.154 312.091 181.615 313.072 196.201 313.217C196.374 313.217 198.945 311.687 198.945 311.022C201.169 313.13 204.317 314.343 206.657 316.537L206.686 316.508Z" fill="#6D72B5"/>
<path d="M214.398 323.12C210.268 323.062 184.821 323.322 184.07 322.023C180.228 315.44 202.556 320.204 206.686 316.508C209.112 318.789 211.856 320.954 214.398 323.12Z" fill="#6D72B5"/>
<path d="M178.553 319.829C179.477 319.28 181.383 321.33 181.297 321.475C180.459 323.294 176.069 321.33 178.553 319.829Z" fill="#6D72B5"/>
<path d="M666.635 310.994C673.827 321.937 674.867 316.451 685.381 314.314C686.912 317.317 685.381 316.364 685.381 316.508C662.476 327.625 621.143 337.99 601.56 348.471C593.992 346.883 579.348 354.996 565.715 357.277C500.668 364.264 435.361 365.506 369.939 362.792C389.06 362.532 362.602 338.077 360.003 328.606C360.118 328.606 359.309 327.509 362.198 327.509C368.581 333.11 388.107 350.434 393.075 352.86C403.155 357.768 414.045 355.545 425.598 358.374L416.211 348.442C424.125 348.096 432.588 347.345 440.473 346.248C440.531 346.305 440.791 346.363 441.571 347.345C446.337 353.466 448.157 359.01 454.251 359.472C468.751 360.569 462.685 354.621 459.219 347.345C472.082 346.613 484.955 345.882 497.837 345.15C498.559 346.652 498.906 346.19 498.935 346.248C502.574 353.004 499.83 356.295 509.42 356.18C519.616 356.036 517.132 352.6 515.485 345.15H534.231C534.722 346.248 534.404 351.012 536.975 352.86C554.999 350.781 556.761 353.033 556.269 345.15C555.981 340.069 551.215 327.884 550.753 320.897C551.041 320.839 550.117 319.713 556.269 318.703L561.238 346.277C586.8 341.946 613.546 341.715 636.798 329.184L626.862 306.576C630.415 306.201 644.164 304.18 645.059 304.382C649.507 305.392 654.215 323.294 666.578 310.994H666.635Z" fill="#B9CE37"/>
<path d="M686.479 408.036C684.023 409.566 682.204 411.847 679.864 413.551C677.091 415.572 676.745 416.727 676.542 416.871C669.466 421.087 616.464 440.576 610.918 440.028L580.041 410.259C518.576 421 456.215 417.362 394.201 419.066C394.432 418.864 396.974 414.417 397.523 413.551C406.188 412.569 420.63 412.078 430.624 411.357C454.424 409.595 573.34 408.729 582.294 404.745C585.5 403.301 582.294 400.558 582.843 398.133L614.268 425.706C639.571 418.373 665.538 411.674 686.507 394.841C686.883 399.201 686.247 403.705 686.507 408.065L686.479 408.036Z" fill="#1DB24B"/>
<path d="M109.636 286.74C121.594 297.192 115.499 300.195 133.898 302.187C138.982 302.736 144.268 301.581 149.351 303.285C141.928 306.749 135.545 303.92 128.382 307.154C128.035 309.088 141.524 317.23 143.834 318.732C146.145 320.233 147.907 321.821 150.449 323.149C151.893 323.9 153.366 324.679 154.868 325.343C158.508 326.96 162.118 328.491 165.902 329.761V336.373C156.746 333.63 147.82 331.234 139.444 326.441C118.417 314.43 98.1111 279.926 47.9106 264.71C49.4415 263.873 70.2091 260.264 72.1732 260.293C83.0914 260.553 100.768 278.945 109.665 286.74H109.636Z" fill="#D7E379"/>
<path d="M685.381 314.314C674.867 316.451 673.827 321.965 666.635 310.994C668.743 308.915 669.177 308.222 667.732 305.479C671.516 300.109 683.128 309.925 685.381 314.285V314.314Z" fill="#D7E379"/>
<path d="M47.3036 307.702C48.1124 307.24 59.4638 310.936 59.9837 312.668C54.4957 345.786 45.4551 308.771 47.3036 307.702Z" fill="#1DB24B"/>
<path d="M196.75 308.799C179.593 314.285 165.873 303.746 164.226 303.284C162.407 302.765 158.912 303.775 157.063 303.284C154.03 302.447 155.417 302.158 153.193 299.964C148.629 299.531 149.553 303.169 149.322 303.284C144.239 301.581 138.982 302.736 133.869 302.187C136.353 298.723 130.894 297.019 122.835 291.158C135.256 281.456 148.427 293.756 149.871 293.352C150.246 293.237 151.951 288.444 155.388 287.837C157.612 287.462 177.571 291.966 178.004 286.74C184.994 291.158 192.995 305.161 196.75 308.799Z" fill="#B9CE37"/>
<path d="M258.533 324.247L280.6 348.5C266.996 346.508 253.334 345.208 239.787 342.985C242.993 339.289 246.315 335.449 249.723 331.956C252.236 329.386 254.114 326.008 257.435 324.247H258.533Z" fill="#62BF82"/>
<path d="M196.75 308.799C197.501 309.521 198.223 310.33 198.945 310.994C198.945 311.687 196.375 313.188 196.201 313.188C181.615 313.015 160.154 312.062 150.42 323.12C147.878 321.821 146.116 320.233 143.806 318.703C143.632 314.632 145.308 319.973 149.322 314.834C151.113 312.553 152.76 305.739 157.034 303.256C158.883 303.747 162.378 302.736 164.198 303.256C165.844 303.718 179.564 314.256 196.721 308.77L196.75 308.799Z" fill="#62BF82"/>
<path d="M178.005 286.741C177.571 291.967 157.612 287.462 155.388 287.838C151.951 288.444 150.247 293.237 149.872 293.353C148.456 293.757 135.285 281.457 122.836 291.158C121.132 289.917 117.781 289.224 116.222 285.643C123.905 284.546 171.015 282.323 175.232 283.449C176.3 283.94 177.802 286.654 177.976 286.769L178.005 286.741Z" fill="#D2EADC"/>
<path d="M116.25 285.643C117.81 289.224 121.16 289.916 122.865 291.158C130.923 296.99 136.382 298.723 133.898 302.187C115.47 300.224 121.594 297.192 109.636 286.74C111.86 284.95 113.968 285.961 116.25 285.643Z" fill="#B9CE37"/>
<path d="M601.559 348.499C577.037 361.637 577.874 376.708 559.1 362.82C532.295 366.949 422.421 367.411 414.622 369.432C413.871 369.634 403.473 379.278 402.491 379.365C400.151 379.567 384.958 370.645 357.807 365.044V360.626C361.995 361.059 365.808 362.185 369.938 362.82C435.361 365.534 500.667 364.293 565.714 357.306C579.348 355.025 593.992 346.883 601.559 348.499Z" fill="#1DB24B"/>
<path d="M138.289 329.761C140.253 330.194 150.391 337.124 175.78 342.985C192.822 346.912 210.296 348.587 227.627 350.694C241.231 352.34 254.836 353.466 268.44 355.112C263.847 362.272 259.63 357.277 259.053 357.306C235.628 358.375 228.407 355.834 214.947 355.112C210.556 354.881 205.04 354.39 201.169 357.306C190.771 354.708 180.459 351.705 169.743 350.694C157.959 346.479 126.1 331.811 136.093 345.18H134.996C134.274 341.339 128.439 327.567 138.318 329.732L138.289 329.761Z" fill="#2B1C32"/>
<path d="M582.785 398.104C582.207 400.529 585.442 403.301 582.236 404.715C573.311 408.7 454.396 409.566 430.566 411.327C429.584 403.099 432.617 407.401 436.083 404.715C485.186 403.82 533.769 401.799 582.785 398.104Z" fill="#B9CE37"/>
<path d="M239.758 342.985C253.304 345.208 266.966 346.507 280.571 348.5C281.004 348.557 286.001 351.416 288.832 351.82C311.939 353.148 334.815 358.317 357.778 360.626V365.044C328.114 358.923 298.132 358.692 268.44 355.112C254.835 353.495 241.231 352.369 227.626 350.694C236.061 347.518 220.983 347.229 215.495 346.276L221.012 340.762C227.193 341.772 233.634 341.974 239.758 342.956V342.985Z" fill="#B9CE37"/>
<path d="M372.134 426.774C365.028 431.856 358.327 438.641 351.742 444.416C339.668 442.77 259.919 440.258 255.789 437.804C253.103 436.187 256.829 433.444 259.659 432.289C290.305 434.888 320.98 437.14 351.771 436.707C356.219 431.712 361.62 427.814 366.675 423.483L372.192 426.803L372.134 426.774Z" fill="#62BF82"/>
<path d="M436.112 404.715C432.646 407.429 429.613 403.099 430.595 411.327C420.601 412.049 406.188 412.569 397.494 413.522C395.154 413.782 392.67 413.348 390.33 413.522C384.871 418.805 378.228 422.415 372.134 426.746L366.617 423.425C370.054 420.451 382.907 405.495 385.911 404.687C402.635 404.456 419.388 405.004 436.083 404.687L436.112 404.715Z" fill="#B9CE37"/>
<path d="M154.839 408.036C170.87 413.031 187.218 416.813 203.365 421.26C209.748 423.021 216.449 421.029 208.881 426.774C184.908 423.425 161.281 419.181 137.74 413.55L136.094 411.905C138.722 408.815 142.015 406.39 144.903 403.647C147.647 405.957 151.518 407.025 154.839 408.065V408.036Z" fill="#723C97"/>
<path d="M203.364 421.26C187.189 416.785 170.869 413.031 154.839 408.036C156.89 401.251 194.323 409.104 209.43 408.036C212.925 409.364 205.819 419.181 203.364 421.26Z" fill="#171312"/>
<path d="M192.331 391.491C194.901 400.731 169.454 396.66 154.839 394.812C152.413 391.116 151.257 386.583 149.322 382.685C161.714 383.551 183.983 390.654 192.331 391.491Z" fill="#171312"/>
<path d="M686.478 394.812C665.508 411.645 639.513 418.344 614.239 425.678L582.813 398.104C533.797 401.799 485.214 403.821 436.112 404.716C419.388 405.033 402.635 404.485 385.94 404.716C382.936 405.524 370.083 420.509 366.645 423.454C361.62 427.785 356.189 431.683 351.741 436.678C320.951 437.111 290.276 434.888 259.63 432.261C242.56 430.817 225.865 429.113 208.881 426.746C216.449 421 209.776 422.992 203.364 421.231C205.819 419.123 212.925 409.335 209.43 408.007C194.295 409.076 156.89 401.222 154.839 408.007C151.517 406.968 147.647 405.9 144.903 403.59C148.109 400.558 152.124 398.335 154.839 394.783C169.454 396.66 194.901 400.731 192.33 391.463C208.448 393.109 163.244 378.21 146 377.142C141.206 366.603 137.104 356.642 134.967 345.18H136.064C149.293 355.054 206.975 361.348 210.527 362.821C214.889 364.64 214.109 368.942 214.947 369.433C217.286 370.819 262.865 375.929 268.989 373.85C246.979 366.055 223.699 362.937 201.169 357.306C205.068 354.361 210.556 354.852 214.947 355.112C228.407 355.863 235.656 358.375 259.053 357.306C259.63 357.306 263.847 362.244 268.44 355.112C298.133 358.663 328.114 358.894 357.778 365.044C384.9 370.646 400.093 379.596 402.462 379.365C403.444 379.279 413.842 369.635 414.593 369.433C422.392 367.412 532.266 366.95 559.071 362.821C577.874 376.709 577.008 361.637 601.53 348.5C621.114 338.019 662.447 327.625 685.352 316.538C685.727 325.084 680.239 333.342 680.933 334.728C681.857 336.547 684.399 332.909 685.352 334.728C687.345 338.568 679.431 352.571 679.835 353.466C680.644 355.285 683.359 351.676 684.254 353.466C690.349 365.679 669.639 373.158 685.352 368.913C686.074 370.299 686.074 390.221 686.449 394.812H686.478Z" fill="#44256E"/>
<path d="M201.169 357.306C223.698 362.937 247.008 366.026 268.988 373.85C262.865 375.929 217.286 370.848 214.946 369.433C214.109 368.942 214.889 364.64 210.527 362.821C206.974 361.348 149.322 355.054 136.064 345.18C126.07 331.811 157.929 346.479 169.714 350.694C180.43 351.734 190.742 354.708 201.14 357.306H201.169Z" fill="#672872"/>
<path d="M259.63 410.231C257.695 416.496 273.783 415.399 270.115 421.26C269.364 422.473 244.033 422.848 241.433 422.357C234.645 421.087 210.816 408.498 215.524 401.396C228.175 404.658 247.181 409.826 259.63 410.202V410.231Z" fill="#171312"/>
<path d="M192.33 391.492C183.982 390.655 161.713 383.552 149.322 382.686C148.426 380.867 146.924 379.163 146 377.171C163.244 378.239 208.447 393.138 192.33 391.492Z" fill="#672872"/>
<path d="M259.63 410.231C247.152 409.856 228.147 404.687 215.524 401.425C217.633 398.22 286.319 411.068 259.63 410.231Z" fill="#7D1F5F"/>
<path d="M394.201 419.066C456.215 417.333 518.575 420.971 580.041 410.26L610.918 440.028C616.463 440.576 669.495 421.087 676.542 416.871C678.506 418.315 686.738 425.476 686.478 427.352C686.132 429.72 665.22 441.76 661.667 443.348C580.561 479.122 342.961 475.079 250.272 466.504C213.647 462.115 175.347 459.806 142.188 444.445C135.804 435.899 124.54 431.597 115.73 425.706C102.01 416.525 47.6793 378.499 54.5249 367.268C57.6732 370.27 105.736 406.391 110.213 409.162C164.804 442.77 288.601 443.579 355.063 452.154C367.31 440.374 381.694 430.413 394.23 419.066H394.201Z" fill="#171312"/>
<path d="M165.873 336.373C170.032 337.615 173.787 338.712 178.004 339.694L175.809 343.014C150.42 337.153 140.253 330.223 138.317 329.79L139.415 326.47C147.791 331.263 156.717 333.659 165.873 336.402V336.373Z" fill="#B9CE37"/>
<path d="M139.415 326.441L138.317 329.761C128.439 327.567 134.303 341.339 134.996 345.208C137.133 356.671 141.235 366.661 146.029 377.171C146.925 379.163 148.427 380.867 149.351 382.686C151.286 386.583 152.413 391.116 154.868 394.812C152.153 398.364 148.138 400.587 144.932 403.618C142.015 406.39 138.722 408.787 136.122 411.876L137.769 413.522C161.309 419.152 184.936 423.396 208.91 426.746C225.894 429.113 242.589 430.817 259.659 432.261C256.857 433.415 253.103 436.158 255.789 437.775C259.919 440.229 339.697 442.741 351.741 444.387C358.327 438.613 365.028 431.827 372.134 426.746C378.228 422.386 384.871 418.777 390.33 413.522C392.699 413.349 395.154 413.782 397.494 413.522C396.974 414.388 394.432 418.806 394.172 419.037C381.636 430.384 367.252 440.345 355.005 452.125C288.543 443.521 164.746 442.741 110.156 409.133C105.679 406.361 57.6155 370.241 54.4671 367.238C50.0768 363.052 50.2212 364.149 50.0479 363.918C48.0838 361.493 46.8129 359.703 45.6286 356.758V321.475L57.2111 334.15L62.728 317.606C72.9529 364.929 74.8304 350.723 65.472 312.64L42.307 301.61C43.6934 291.591 38.2632 270.023 47.8238 264.682C98.0531 279.927 118.33 314.401 139.357 326.412L139.415 326.441Z" fill="#1DB24B"/>
<path d="M101.346 335.247C108.047 333.486 106.314 367.267 105.765 372.724C101.346 376.333 99.4109 335.738 101.346 335.247Z" fill="#D2EADC"/>
<path d="M78.1811 320.926C85.0266 335.103 82.4848 373.879 78.7299 352.34C78.1522 349.049 76.9391 321.879 78.1811 320.926Z" fill="#D2EADC"/>
<path d="M88.1171 327.538C93.3163 326.586 91.0633 352.976 86.4708 342.437C86.0375 341.426 85.8642 327.972 88.1171 327.538Z" fill="#D2EADC"/>
<path d="M92.5363 352.889C98.5731 351.763 96.3201 363.572 95.858 367.21C91.6987 365.246 90.4278 353.264 92.5363 352.889Z" fill="#D2EADC"/>
<path d="M503.382 303.285C506.704 306.172 524.612 321.908 525.45 323.12C526.085 324.073 532.064 339.318 534.259 344.082C534.404 344.371 534.115 344.891 534.259 345.179H515.514C515.311 344.198 514.676 343.967 514.416 342.985C513.058 338.077 496.306 299.964 498.414 298.896C499.801 300.686 501.707 301.87 503.382 303.314V303.285Z" fill="#FDFEFF"/>
<path d="M415.142 348.5C415.518 348.5 415.864 348.5 416.24 348.5L425.627 358.432C414.074 355.632 403.155 357.826 393.104 352.917C391.457 341.657 397.407 349.453 399.169 349.597C404.455 350.088 410.145 348.673 415.171 348.5H415.142Z" fill="#243719"/>
<path d="M221.013 340.761L215.496 346.276C202.96 344.082 190.424 342.523 178.004 339.664C173.787 338.683 170.003 337.585 165.873 336.344V329.732C183.637 335.622 202.642 337.701 221.013 340.761Z" fill="#7CCCC4"/>
<path d="M157.063 303.285C152.759 305.768 151.113 312.582 149.351 314.863C145.336 320.002 143.661 314.661 143.834 318.732C141.523 317.23 128.063 309.088 128.381 307.154C135.544 303.92 141.928 306.778 149.351 303.285C149.582 303.169 148.658 299.56 153.221 299.964C155.445 302.13 154.059 302.447 157.092 303.285H157.063Z" fill="#B9CE37"/>
<path d="M215.496 346.276C220.984 347.229 236.061 347.518 227.627 350.694C210.297 348.586 192.822 346.912 175.78 342.985L177.975 339.665C190.424 342.523 202.931 344.111 215.467 346.276H215.496Z" fill="#B9CE37"/>
<path d="M360.002 328.635C362.573 338.106 389.06 362.561 369.938 362.821C365.808 362.186 361.995 361.031 357.807 360.627C334.844 358.288 311.997 353.12 288.861 351.82C286.001 351.416 281.033 348.587 280.6 348.5L258.533 324.247C292.356 323.871 326.237 328.289 360.002 328.664V328.635Z" fill="#FDFEFF"/>
<path d="M280.022 330.858C291.287 331.551 356.767 334.958 360.551 336.373C361.36 336.691 366.934 345.006 363.872 345.179C349.344 340.733 290.94 343.909 284.47 341.859C281.871 341.051 277.451 332.677 280.051 330.83L280.022 330.858Z" fill="#F8CE63"/>
<path d="M626.92 306.605L636.856 329.213C613.604 341.743 586.858 341.974 561.295 346.305L556.327 318.732C567.014 316.942 577.615 314.863 588.302 313.217C590.872 312.813 593.472 312.495 596.014 312.12C606.268 310.532 616.55 307.702 626.891 306.605H626.92Z" fill="#FDFEFF"/>
<path d="M620.854 315.412C624.927 315.902 631.743 322.486 619.757 325.344C616.753 326.066 572.647 333.111 570.134 333.053C562.797 332.937 562.248 325.373 564.617 324.247C574.495 324.189 618.052 315.094 620.854 315.44V315.412Z" fill="#EAA4C9"/>
<path d="M183.521 179.795C173.845 203.846 187.507 241.323 184.07 243.748C169.397 242.651 155.59 243.835 141.062 245.943C138.116 244.614 138 232.026 133.35 230.495C122.951 230.929 112.207 229.456 101.924 231.593C102.502 223.162 108.798 215.77 112.958 208.437C115.702 211.757 119.919 226.944 124.54 226.078C126.475 225.703 153.684 205.52 156.515 202.922C170.003 190.593 179.131 168.13 183.55 179.766L183.521 179.795Z" fill="#FDFEFF"/>
<path d="M695.288 434.483C691.851 420.336 686.796 422.559 679.835 413.522C682.175 411.818 683.995 409.537 686.45 408.007C692.833 426.514 705.224 426.514 695.26 434.455L695.288 434.483Z" fill="#DDE28E"/>
</g>
<defs>
<filter id="filter0_d_37_1461" x="0" y="0" width="699" height="501.38" filterUnits="userSpaceOnUse" color-interpolation-filters="sRGB">
<feFlood flood-opacity="0" result="BackgroundImageFix"/>
<feColorMatrix in="SourceAlpha" type="matrix" values="0 0 0 0 0 0 0 0 0 0 0 0 0 0 0 0 0 0 127 0" result="hardAlpha"/>
<feOffset dx="-30" dy="17"/>
<feGaussianBlur stdDeviation="6"/>
<feComposite in2="hardAlpha" operator="out"/>
<feColorMatrix type="matrix" values="0 0 0 0 0 0 0 0 0 0 0 0 0 0 0 0 0 0 0.71 0"/>
<feBlend mode="normal" in2="BackgroundImageFix" result="effect1_dropShadow_37_1461"/>
<feBlend mode="normal" in="SourceGraphic" in2="effect1_dropShadow_37_1461" result="shape"/>
</filter>
<linearGradient id="paint0_linear_37_1461" x1="554.969" y1="254.663" x2="558.288" y2="305.249" gradientUnits="userSpaceOnUse">
<stop stop-color="#4F3D92"/>
<stop offset="1" stop-color="#221E1E"/>
</linearGradient>
<linearGradient id="paint1_linear_37_1461" x1="310.062" y1="285.355" x2="313.381" y2="314.95" gradientUnits="userSpaceOnUse">
<stop stop-color="#61468E"/>
<stop offset="1" stop-color="#501E5E"/>
</linearGradient>
</defs>
</svg>
