<svg width="49" height="49" viewBox="0 0 49 49" fill="none" xmlns="http://www.w3.org/2000/svg">
<g clip-path="url(#clip0_2_931)">
<path d="M24.1615 47.3122C36.9533 47.3122 47.3231 36.9449 47.3231 24.1561C47.3231 11.3673 36.9533 1 24.1615 1C11.3698 1 1 11.3673 1 24.1561C1 36.9449 11.3698 47.3122 24.1615 47.3122Z" stroke="white" stroke-width="1.5" stroke-miterlimit="10"/>
<path d="M33.503 7.0101C29.0843 7.0101 26.0138 9.20715 24.4842 13.1369C24.4616 13.1935 24.4276 13.3408 24.4163 13.3068C24.4049 13.2728 24.3709 13.1935 24.3369 13.1482C24.3369 13.1482 24.3369 13.1482 24.3369 13.1369C22.5808 9.20715 19.2044 7.0101 14.7856 7.0101C8.19148 7.0101 2.85498 11.8912 2.85498 20.0904C2.85498 22.5366 3.33085 24.8356 4.16928 26.8741C4.16928 26.8967 4.19194 26.9307 4.19194 26.9533C4.45253 27.7574 4.91707 28.6408 5.54023 29.5694C10.3329 36.7834 24.3143 47.2477 24.3143 47.2477C24.3143 47.2477 28.4271 44.1333 32.9252 40.1356C33.8883 39.2749 34.874 38.3802 35.8257 37.4629C39.7913 33.6804 43.4396 29.5807 44.176 26.7042C44.9805 24.711 45.4224 22.4687 45.4224 20.0791C45.4224 11.8798 40.0745 6.99878 33.4917 6.99878L33.503 7.0101ZM24.065 36.6022C21.4591 36.6022 18.9665 36.3191 16.6778 35.7981C15.7714 33.5218 15.2388 30.8491 15.2388 27.9613C15.2388 20.5661 18.7059 14.4279 23.2493 13.3068C23.5212 13.3068 23.7818 13.3068 24.0537 13.3068C24.8921 13.3068 25.7192 13.3294 26.535 13.3974C30.9311 14.6997 34.2508 20.7359 34.2508 27.9726C34.2508 30.6793 33.7863 33.2274 32.9705 35.4131C30.2853 36.1832 27.2601 36.6135 24.0537 36.6135L24.065 36.6022Z" stroke="white" stroke-width="1.5" stroke-miterlimit="10"/>
<path d="M27.7025 13.4994C26.9433 13.3295 26.1502 13.2162 25.3458 13.1596C25.1079 13.1483 24.8586 13.137 24.6207 13.137C24.5753 13.137 24.53 13.137 24.4847 13.137H24.3374C23.4197 13.137 22.5246 13.2276 21.6522 13.3974C14.7748 14.6885 9.57422 20.7247 9.57422 27.9726C9.57422 29.9998 9.9821 31.9251 10.7186 33.6917C12.9506 39.0484 18.2418 42.8197 24.428 42.8197C24.496 42.8197 24.564 42.8197 24.632 42.8197C24.8699 42.8197 25.1192 42.8197 25.3571 42.797C28.167 42.6158 30.7616 41.6645 32.937 40.147C34.0134 39.3882 34.9991 38.4935 35.8375 37.4743C36.8912 36.2172 37.7296 34.7789 38.3188 33.2048C38.9306 31.5853 39.2705 29.8186 39.2705 27.984C39.2705 20.9172 34.3306 15.0056 27.7138 13.5107L27.7025 13.4994ZM24.0542 36.6023C21.4482 36.6023 18.9556 36.3191 16.6669 35.7982C15.7605 33.5219 15.228 30.8492 15.228 27.9613C15.228 20.5661 18.695 14.428 23.2384 13.3068C23.5103 13.3068 23.7709 13.3068 24.0428 13.3068C24.8813 13.3068 25.7084 13.3295 26.5241 13.3974C30.9202 14.6998 34.24 20.736 34.24 27.9726C34.24 30.6793 33.7754 33.2274 32.9596 35.4131C30.2744 36.1832 27.2493 36.6136 24.0428 36.6136L24.0542 36.6023Z" stroke="white" stroke-width="1.5" stroke-miterlimit="10"/>
<path d="M26.5473 13.3975C25.7313 13.3409 24.904 13.3069 24.0654 13.3069C23.7934 13.3069 23.5214 13.3069 23.2607 13.3069C23.6121 13.2163 23.9747 13.1596 24.3374 13.137C24.3827 13.137 24.428 13.137 24.4734 13.137H24.6207C24.6207 13.137 24.7113 13.137 24.7567 13.137C24.9607 13.137 25.1533 13.137 25.3573 13.1596C25.7653 13.1936 26.1619 13.2842 26.5473 13.3975Z" stroke="white" stroke-width="1.5" stroke-miterlimit="10"/>
<path d="M32.9823 35.4131C31.4414 39.5807 28.6202 42.4685 25.3571 42.7856C25.1645 42.8083 24.9606 42.8083 24.7566 42.8083C24.7113 42.8083 24.666 42.8083 24.6207 42.8083C21.2669 42.7403 18.3324 39.9544 16.6782 35.8095C18.9669 36.3304 21.4595 36.6135 24.0655 36.6135C27.2719 36.6135 30.2971 36.1832 32.9823 35.4131Z" stroke="white" stroke-width="1.5" stroke-miterlimit="10"/>
<path d="M15.2389 27.9726C15.2389 30.8492 15.7601 33.5332 16.6779 35.8095C14.4685 35.3112 12.4631 34.5864 10.7182 33.6917C8.50883 32.5706 6.73 31.1663 5.54033 29.5808C4.9285 28.754 4.46397 27.882 4.19204 26.9647C3.99943 26.3192 3.89746 25.651 3.89746 24.9715C3.89746 19.0146 11.6473 14.0996 21.6518 13.4087C22.1843 13.3748 21.9804 13.6692 22.5242 13.6579C17.9808 14.7791 15.2503 20.5888 15.2503 27.9953L15.2389 27.9726Z" stroke="white" stroke-width="1.5" stroke-miterlimit="10"/>
<path d="M44.233 24.9602C44.233 28.1765 41.967 31.0983 38.3187 33.2047C36.7664 34.0994 34.9649 34.8469 32.9822 35.4131C33.7979 33.2274 34.2625 30.6906 34.2625 27.9726C34.2625 20.736 31.7472 15.0055 27.3511 13.6918C27.7476 13.7145 27.3284 13.454 27.7136 13.4993C37.1177 14.4959 44.233 19.2411 44.233 24.9602Z" stroke="white" stroke-width="1.5" stroke-miterlimit="10"/>
<path d="M10.4009 7.79163C6.44664 9.92072 3.96533 12.9558 3.96533 16.3193C3.96533 22.7519 12.9955 27.9727 24.133 27.9727C35.2705 27.9727 44.3007 22.7632 44.3007 16.3193C44.3007 12.9558 41.8194 9.92072 37.8651 7.79163" stroke="white" stroke-width="1.5" stroke-miterlimit="10"/>
</g>
<defs>
<clipPath id="clip0_2_931">
<rect width="48.3231" height="48.3122" fill="white"/>
</clipPath>
</defs>
</svg>
